# monument.obj — тестовая модель SAGE testgame (постамент + обелиск)
o Monument
v -1.0000 0.0000 -1.0000
v 1.0000 0.0000 -1.0000
v 1.0000 0.5000 -1.0000
v -1.0000 0.5000 -1.0000
v -1.0000 0.0000 1.0000
v 1.0000 0.0000 1.0000
v 1.0000 0.5000 1.0000
v -1.0000 0.5000 1.0000
v -0.7000 0.5000 -0.7000
v 0.7000 0.5000 -0.7000
v 0.7000 0.5000 0.7000
v -0.7000 0.5000 0.7000
v -0.2500 3.1000 -0.2500
v 0.2500 3.1000 -0.2500
v 0.2500 3.1000 0.2500
v -0.2500 3.1000 0.2500
vt 0 0
vt 1 0
vt 1 1
vt 0 1
vn 0.0000 0.0000 -1.0000
vn 0.0000 0.0000 1.0000
vn 0.0000 -1.0000 0.0000
vn 0.0000 1.0000 0.0000
vn 1.0000 0.0000 0.0000
vn -1.0000 0.0000 0.0000
vn 0.0000 -0.1705 0.9854
vn -0.9854 -0.1705 0.0000
vn -0.0000 -0.1705 -0.9854
vn 0.9854 -0.1705 0.0000
vn 0.0000 1.0000 0.0000
f 1/1/1 4/2/1 3/3/1
f 1/1/1 3/3/1 2/4/1
f 5/1/2 6/2/2 7/3/2
f 5/1/2 7/3/2 8/4/2
f 1/1/3 2/2/3 6/3/3
f 1/1/3 6/3/3 5/4/3
f 3/1/4 4/2/4 8/3/4
f 3/1/4 8/3/4 7/4/4
f 2/1/5 3/2/5 7/3/5
f 2/1/5 7/3/5 6/4/5
f 4/1/6 1/2/6 5/3/6
f 4/1/6 5/3/6 8/4/6
f 9/1/7 10/2/7 14/3/7
f 9/1/7 14/3/7 13/4/7
f 10/1/8 11/2/8 15/3/8
f 10/1/8 15/3/8 14/4/8
f 11/1/9 12/2/9 16/3/9
f 11/1/9 16/3/9 15/4/9
f 12/1/10 9/2/10 13/3/10
f 12/1/10 13/3/10 16/4/10
f 13/1/11 14/2/11 15/3/11
f 13/1/11 15/3/11 16/4/11
